<svg id="Layer_1_copy" data-name="Layer 1 copy" xmlns="http://www.w3.org/2000/svg" viewBox="0 0 1080 1080"><defs><style>.cls-1{fill:#8dc63f;}.cls-2{fill:#fff;}</style></defs><title>OneStopShop</title><path class="cls-1" d="M551.86,467.82H521.33v68.79h-43V467.82H448.67v-38.7H551.86Z"/><path class="cls-1" d="M553.48,548.55V652.76H511.8V619.55H488.73v33.21H447.05V548.55h41.68V582H511.8V548.55Z"/><path class="cls-1" d="M433.85,546.46c0,38.66-30.6,59.82-94.33,59.82-66,0-93.64-28.53-89-59.36l46-8v-3.22c-24.62-1.38-46.24-12.19-46.24-48.55,0-41.41,33.36-62.58,89.27-62.58,49,0,86.5,16.34,89,55l-52.45,16.1v3.69C413.14,498.38,433.85,515.17,433.85,546.46ZM312.37,487.1c0,6.91,9.2,7.14,48.77,9.67-1.84-11.5-14.26-15.19-29.68-15.19C316.28,481.58,312.37,482.5,312.37,487.1Zm56.14,59.36c0-6.9-6-8.28-49.24-9.66-2.76,11.05.23,15.65,24.85,15.65C363.9,552.45,368.51,550.83,368.51,546.46Z"/><path class="cls-1" d="M940,552.43c0,49.46-30.83,71.55-91.57,71.55H827.49v28.76H784.61a26.14,26.14,0,0,1-26.14-26.14V480.18h98.7C903.42,480.18,940,502.27,940,552.43Z"/><path class="cls-1" d="M750.43,576.92c0-63.73-94.11-105.94-94.11-105.94s-94.11,44.74-94.11,103.18c0,62.52,32.37,78.38,70.65,78.38,9.62,0,15.94-3.85,15.94-17.12s14.91-13.51,14.91,0,10.33,17.29,16.07,17.12C720.05,651.39,750.43,636.88,750.43,576.92Z"/><path class="cls-1" d="M158.9,601.68V509l4.83-52h-1.84c-6.44,42.34-12.42,43.59-33.82,45.43v-43c14.49,0,26.92-18.49,30.14-30.23h69.71V601.68Z"/><path class="cls-2" d="M843.29,652.69s-2.79-55.77-2.79-61.35,16.73-12.28,16.73-27.88S851.66,530,834.93,530s-22.31,18.51-22.31,33.46,16.73,22.35,16.73,27.88-2.79,61.35-2.79,61.35,2.79,2.79,8.37,2.79S843.29,652.69,843.29,652.69Z"/><path class="cls-2" d="M667.47,536.51V569a2.79,2.79,0,0,1-2.79,2.79h0A2.78,2.78,0,0,1,661.9,569l-2.61-36.27a3,3,0,0,0-2.94-2.77h-.06a3,3,0,0,0-2.95,2.77L650.74,569a2.79,2.79,0,0,1-2.79,2.79h0a2.78,2.78,0,0,1-2.78-2.79V536.66a1.4,1.4,0,0,0-2.42-.95c-.13.13-.25.27-.37.4-6.07,6.7-8.37,17.76-8.37,27.35,0,14.95,16.73,22.35,16.73,27.88S648,652.69,648,652.69s2.79,2.79,8.37,2.79,8.36-2.79,8.36-2.79-2.78-55.77-2.78-61.35,16.73-12.28,16.73-27.88c0-10.23-2.41-21.44-8.78-27.94A1.4,1.4,0,0,0,667.47,536.51Z"/></svg>